<?xml version="1.0" encoding="UTF-8" standalone="no"?>
<!-- Created with Inkscape (http://www.inkscape.org/) -->

<svg
   xmlns:dc="http://purl.org/dc/elements/1.1/"
   xmlns:cc="http://creativecommons.org/ns#"
   xmlns:rdf="http://www.w3.org/1999/02/22-rdf-syntax-ns#"
   xmlns:svg="http://www.w3.org/2000/svg"
   xmlns="http://www.w3.org/2000/svg"
   xmlns:xlink="http://www.w3.org/1999/xlink"
   xmlns:sodipodi="http://sodipodi.sourceforge.net/DTD/sodipodi-0.dtd"
   xmlns:inkscape="http://www.inkscape.org/namespaces/inkscape"
   width="1920"
   height="1080"
   viewBox="0 0 507.99998 285.75001"
   version="1.1"
   id="svg8"
   inkscape:version="1.0 (4035a4fb49, 2020-05-01)"
   sodipodi:docname="wall-spirall.svg"
   inkscape:export-filename="/home/shisam/Obrazy/svg/wall-spirall.png"
   inkscape:export-xdpi="96"
   inkscape:export-ydpi="96">
  <defs
     id="defs2">
    <linearGradient
       inkscape:collect="always"
       id="linearGradient3132">
      <stop
         style="stop-color:#2d1650;stop-opacity:1;"
         offset="0"
         id="stop3128" />
      <stop
         style="stop-color:#2d1650;stop-opacity:0;"
         offset="1"
         id="stop3130" />
    </linearGradient>
    <linearGradient
       id="linearGradient3106"
       inkscape:collect="always">
      <stop
         id="stop3102"
         offset="0"
         style="stop-color:#c83737;stop-opacity:1;" />
      <stop
         id="stop3104"
         offset="1"
         style="stop-color:#ab37c8;stop-opacity:0.20231396" />
    </linearGradient>
    <linearGradient
       inkscape:collect="always"
       id="linearGradient3098">
      <stop
         style="stop-color:#c83737;stop-opacity:1;"
         offset="0"
         id="stop3094" />
      <stop
         style="stop-color:#ab37c8;stop-opacity:0.2752246"
         offset="1"
         id="stop3096" />
    </linearGradient>
    <inkscape:path-effect
       effect="curvestitching"
       id="path-effect840"
       is_visible="true"
       lpeversion="1"
       count="75"
       startpoint_edge_variation="0;1"
       startpoint_spacing_variation="0;150498221"
       endpoint_edge_variation="0;508166890"
       endpoint_spacing_variation="0;1370296809"
       strokepath="M 0,0 C 238.09818,253.1511 262.97784,244.18099 164.99414,0.44419123"
       prop_scale="1"
       scale_y_rel="false"
       strokepath-nodetypes="cc" />
    <linearGradient
       inkscape:collect="always"
       xlink:href="#linearGradient3106"
       id="linearGradient3092"
       x1="-120.21104"
       y1="187.0667"
       x2="405.82742"
       y2="58.71558"
       gradientUnits="userSpaceOnUse"
       gradientTransform="matrix(0.80785701,0,0,0.80784903,-43.02705,-33.640196)" />
    <linearGradient
       inkscape:collect="always"
       xlink:href="#linearGradient3098"
       id="linearGradient3100"
       x1="152.31517"
       y1="55.14967"
       x2="13.844254"
       y2="139.55435"
       gradientUnits="userSpaceOnUse"
       gradientTransform="matrix(0.80785701,0,0,0.80784903,-43.02705,-33.640196)" />
    <linearGradient
       inkscape:collect="always"
       xlink:href="#linearGradient3132"
       id="linearGradient3134"
       x1="-68.741859"
       y1="31.367323"
       x2="280.66125"
       y2="-34.481842"
       gradientUnits="userSpaceOnUse"
       gradientTransform="matrix(1.0010427,0,0,1.0018553,0.23677987,0.32856016)" />
  </defs>
  <sodipodi:namedview
     id="base"
     pagecolor="#ffffff"
     bordercolor="#666666"
     borderopacity="1.0"
     inkscape:pageopacity="0.0"
     inkscape:pageshadow="2"
     inkscape:zoom="0.35355339"
     inkscape:cx="242.56721"
     inkscape:cy="-265.26811"
     inkscape:document-units="px"
     inkscape:current-layer="layer1"
     inkscape:document-rotation="0"
     showgrid="false"
     units="px"
     inkscape:pagecheckerboard="true"
     showborder="false"
     fit-margin-top="0"
     fit-margin-left="0"
     fit-margin-right="0"
     fit-margin-bottom="0" />
  <metadata
     id="metadata5">
    <rdf:RDF>
      <cc:Work
         rdf:about="">
        <dc:format>image/svg+xml</dc:format>
        <dc:type
           rdf:resource="http://purl.org/dc/dcmitype/StillImage" />
        <dc:title></dc:title>
      </cc:Work>
    </rdf:RDF>
  </metadata>
  <g
     inkscape:label="Layer 1"
     inkscape:groupmode="layer"
     id="layer1"
     transform="translate(227.07417,177.09225)">
    <rect
       style="opacity:0.996;fill:#2d1650;fill-opacity:0.999119;stroke:none;stroke-width:0.529167;stroke-linecap:round;stroke-linejoin:round;stroke-miterlimit:4;stroke-dasharray:none;stroke-dashoffset:0"
       id="rect1138"
       width="508"
       height="285.75"
       x="-227.07417"
       y="-177.09225" />
    <g
       id="g3112"
       transform="matrix(0.53422765,0,0,0.53422792,12.471786,-69.618882)"
       style="stroke-width:0.990526;stroke-miterlimit:4;stroke-dasharray:none">
      <path
         d="M 40.474836,-9.5880705 C 74.608879,194.9198 78.175656,187.6733 64.12859,-9.2292312 M 46.783496,-8.1440193 C 63.502016,198.5147 67.666269,191.59523 70.309771,-5.7894803 M 52.906899,-6.1853579 C 52.141446,201.13896 56.867652,194.59326 76.118117,-1.8668441 M 58.831843,-3.7244308 C 40.579033,202.78449 45.831308,196.65718 81.550132,2.5167459 M 64.537414,-0.77130149 C 28.87985,203.4393 34.621207,197.77316 86.594657,7.341625 M 69.995135,2.6631459 C 17.121937,203.0928 23.313553,197.92864 91.233001,12.587315 M 75.169936,6.5644613 C 5.3946502,201.74051 11.995236,197.11685 95.4399,18.229787 M 80.021828,10.912411 C -6.2042562,199.38787 0.76107487,195.34037 99.185214,24.239256 M 84.508237,15.679507 C -17.572559,196.05275 -10.289897,192.61352 102.43621,30.578716 M 88.586615,20.830422 C -28.608109,191.76645 -21.058714,188.9633 105.16019,37.203364 M 92.21714,26.322405 C -39.213435,186.57298 -31.450828,184.42872 107.32718,44.061001 M 95.365133,32.106615 C -49.299831,180.52682 -41.379962,179.05863 108.9123,51.093376 M 98.002738,38.130232 C -58.790357,173.68924 -50.770947,172.90833 109.89748,58.238268 M 100.1099,44.339032 C -67.621365,166.12394 -59.561157,166.03539 110.2724,65.432066 M 101.67418,50.680097 C -75.742339,157.89234 -67.700367,158.49525 110.03435,72.612463 M 102.68981,57.10433 c -185.803933,91.94505 -177.838874,93.23286 6.4974,22.616598 M 103.15575,63.568464 C -89.7057,139.63992 -81.875433,141.60105 107.73961,86.704783 m -4.6664,-16.668357 C -95.489914,129.69659 -87.851288,132.31504 105.7024,93.518448 M 102.44272,76.47987 c -202.88113,42.75882 -195.490037,46.01499 0.64303,23.64422 M 101.26442,82.862524 C -104.50732,108.30037 -97.41828,112.1703 99.904344,106.47636 M 99.561231,89.07969 c -207.178711,7.981387 -200.440351,12.43102 -3.341127,23.39134 M 97.350086,95.105928 C -109.75378,85.592399 -103.41175,90.586134 92.064423,118.09207 m 2.577371,-17.16784 C -110.90549,73.952749 -105.00348,79.454233 87.457707,123.33217 m 3.988738,-16.82235 C -111.06068,62.213798 -105.64051,68.185216 82.419644,128.17634 m 5.356763,-16.34557 C -110.21129,50.459538 -105.31268,56.860909 76.972192,132.60243 m 6.676583,-15.75315 C -108.35739,38.783955 -104.01751,45.572571 71.142009,136.58248 m 7.945266,-15.0587 C -105.51041,27.287581 -101.76325,34.417636 64.962371,140.08476 m 9.160953,-14.27343 C -101.69492,16.073185 -98.570524,23.495657 58.474173,143.07619 M 68.796049,129.67045 C -96.948756,5.2411335 -94.472523,12.903914 51.726014,145.52513 M 63.151487,133.06362 C -91.321557,-5.1150314 -89.513537,2.7332502 44.773354,147.40388 M 57.240761,135.95939 C -84.871704,-14.912197 -83.746129,-6.9353398 37.676721,148.6908 M 51.11773,138.33376 C -77.662262,-24.079983 -77.227277,-16.032876 30.499372,149.37164 m 14.336939,-9.20107 C -69.756369,-32.561432 -70.014029,-24.503052 23.304599,149.43996 m 15.143186,-7.97908 C -61.212696,-40.312029 -62.159218,-32.3013 16.153103,148.89654 m 15.845449,-6.69496 C -52.081513,-47.297163 -53.707746,-39.392406 9.100708,147.7479 m 16.427704,-5.3548 C -42.401775,-53.488339 -44.693835,-45.746928 2.1966642,146.00413 M 19.069588,142.03669 C -32.19947,-58.858468 -35.139467,-51.336746 -4.5173069,143.67611 M 12.646602,141.13133 C -21.487386,-63.376549 -25.054165,-56.130055 -11.007152,140.77249 M 6.3379404,139.68728 C -10.380527,-66.971448 -14.544784,-60.051981 -17.188329,137.33273 m 17.40286436,0.39589 C 0.98004532,-69.595703 -3.7461654,-63.049997 -22.996674,133.4101 m 17.2862681,1.85758 C 12.542458,-71.24123 7.2901793,-65.113926 -28.42869,129.0265 m 17.012716,3.28806 C 24.241641,-71.896037 18.500282,-66.229899 -33.473216,124.20162 m 16.599519,4.67849 C 35.999553,-71.549533 29.807936,-66.385374 -38.11156,118.95593 m 16.063064,6.02286 C 47.726839,-70.197243 41.126251,-65.573581 -42.31846,113.31346 m 15.418069,7.31738 C 59.325743,-67.844601 52.360408,-63.797099 -46.063775,107.30399 m 14.676978,8.55975 C 70.694044,-64.509477 63.411383,-61.070252 -49.314768,100.96452 m 13.849597,9.7483 C 81.729589,-60.22317 74.180198,-57.420032 -52.038746,94.339877 m 12.943047,10.880963 C 92.334918,-55.029707 84.572309,-52.88545 -54.205733,87.482241 m 11.96205,11.954388 C 102.42131,-48.983546 94.501437,-47.515362 -55.790845,80.449867 m 10.909554,12.963149 C 111.91183,-42.14597 103.89242,-41.365062 -56.776027,73.304975 m 9.787585,13.899237 C 120.74284,-34.580663 112.68263,-34.492118 -57.150943,66.111176 m 8.598216,14.75197 C 128.8638,-26.349072 120.82184,-26.951979 -56.912891,58.93078 m 7.344536,15.508132 c 185.803945,-91.945014 177.838885,-93.232835 -6.4974,-22.616606 m 6.03146,16.152473 C 142.82716,-8.0966543 134.99689,-10.057785 -54.618154,44.838461 m 4.666395,16.668364 C 148.61138,1.8466803 140.97275,-0.77177974 -52.580945,38.024792 m 3.25968,17.038589 C 153.55986,12.304575 146.16878,9.0483983 -49.964288,31.419154 m 1.821328,17.261573 c 205.77174,-25.43784 198.6827,-29.307764 1.360074,-23.613834 m 0.343113,17.396675 C 160.73893,34.482182 154.00058,30.032546 -43.098645,19.072217 m -1.129986,17.365113 c 207.103861,9.513528 200.761841,4.519795 5.285666,-22.986147 m -2.57737,17.16785 C 164.02694,57.59051 158.12493,52.089018 -34.336245,8.2110846 M -38.32499,25.033439 C 164.18214,69.329453 158.76197,63.358035 -29.298186,3.3669189 M -34.654948,19.712492 C 163.33275,81.083713 158.43414,74.682342 -23.850732,-1.0591696 M -30.527316,14.693975 C 161.47886,92.759289 157.13898,85.970675 -18.020553,-5.0392269 M -25.965824,10.019486 C 158.63187,104.25567 154.88471,97.125608 -11.840916,-8.5414988 M -21.001869,5.7319301 C 154.81638,115.47006 151.69199,108.04759 -5.3527143,-11.532932 M -15.674602,1.8728102 C 150.07023,126.30211 147.59399,118.63933 1.3954389,-13.98187 M -10.03004,-1.5203528 C 144.44303,136.65827 142.63501,128.80999 8.3480979,-15.860617 M -4.1193145,-4.416124 C 137.99318,146.45544 136.8676,138.47858 15.444728,-17.147535 M 2.0037124,-6.7904974 C 130.78374,155.62322 130.34875,147.57612 22.622077,-17.828379 M 8.2851368,-8.6273005 C 122.87785,164.10468 123.13551,156.04629 29.816849,-17.896703 M 14.673661,-9.9176196 C 114.33418,171.85527 115.2807,163.84454 36.968342,-17.353281 m -15.845453,6.69496 C 105.203,178.84041 106.82923,170.93565 44.020738,-16.204643 m -16.427709,5.354802 C 95.523263,185.03159 97.815323,177.29017 50.924781,-14.46087 m -16.872929,3.967437 c 51.269106,200.895143 54.209099,193.373423 23.5869,-1.639425 M 40.474836,-9.5880705 C 74.608879,194.9198 78.175656,187.6733 64.12859,-9.2292312"
         style="opacity:0.996;fill:none;fill-opacity:0.999119;stroke:url(#linearGradient3100);stroke-width:0.990526;stroke-linecap:round;stroke-linejoin:round;stroke-miterlimit:4;stroke-dasharray:none;stroke-dashoffset:0"
         id="circle835" />
      <path
         id="path842"
         style="opacity:0.996;fill:none;fill-opacity:0.999119;stroke:url(#linearGradient3092);stroke-width:0.990526;stroke-linecap:round;stroke-linejoin:round;stroke-miterlimit:4;stroke-dasharray:none;stroke-dashoffset:0"
         d="m 62.635485,-129.61148 c 88.498495,530.22214 97.745995,511.43435 61.326505,0.93035 m -44.970196,2.8136 c 43.345696,535.79861 54.142256,517.85868 60.995996,6.10455 m -45.119998,-1.02638 c -1.984574,537.52428 10.268948,520.55341 60.179148,11.1965 m -44.81769,-4.81612 c -47.323618,535.41022 -33.70617,519.52411 58.90114,16.181335 m -44.10845,-8.524835 C 32.573448,422.69895 47.458921,408.0085 182.20921,-85.718309 M 139.17204,-97.848078 C 2.0889963,421.80059 18.141846,408.41161 194.23493,-72.117946 M 152.58862,-87.73324 C -28.316054,418.29456 -11.202876,406.3069 205.14206,-57.488859 M 165.168,-76.460425 C -58.388254,412.19493 -40.329411,401.70107 214.85244,-41.908267 M 176.79981,-64.100903 C -87.862574,403.54804 -68.980995,394.63126 223.28122,-25.472115 M 187.37371,-50.746259 C -116.47417,392.43505 -96.901043,385.16741 230.34361,-8.2965671 M 196.78649,-36.507342 C -143.97034,378.97009 -123.84442,373.41073 235.96191,9.4830486 m -31.0137,-30.9938216 c -375.0693,384.805143 -354.53566,380.998613 35.1234,49.226474 m -28.28494,-33.6092 C -194.72695,345.56676 -173.93522,343.54212 242.62587,46.240073 M 217.24984,10.203891 C -217.62288,325.9524 -196.72538,325.72283 243.59791,64.891244 M 221.30552,26.644202 C -238.67794,304.61056 -217.82772,306.1737 242.98072,83.507672 M 223.93873,43.300144 C -257.79058,281.68364 -237.13977,285.02253 240.78438,101.9376 M 225.14676,60.059531 C -274.8804,257.288 -254.57906,262.37256 237.03122,120.04445 M 224.93276,76.828845 C -289.87699,231.50817 -270.07252,238.29698 231.74939,137.71007 M 223.2981,93.534597 c -526.00493,110.859663 -506.84223,119.301853 1.66716,61.301753 m -4.72211,-44.75362 c -533.49935,65.95204 -515.11977,75.9855 -3.52624,61.22296 m -0.88958,-45.10388 c -537.14716,20.69314 -519.67679,32.22958 -8.66245,60.64612 m 2.92967,-45.02205 c -536.9531,-24.66547 -520.51028,-11.71835 -13.70401,59.59557 m 6.68229,-44.51062 c -532.91739,-69.928236 -517.6154,-55.66468 -18.62601,58.09647 m 10.34151,-43.61485 C -330.24694,56.547326 -316.1942,72.02926 171.38476,227.56666 m 13.88835,-42.37872 C -328.04475,26.072366 -315.34424,42.669033 157.26129,239.04206 M 174.5715,198.1993 C -323.23819,-4.1986099 -311.98629,13.402057 142.14551,249.36105 M 162.745,210.31875 C -315.85689,-34.004956 -306.14172,-15.519049 126.12371,258.4413 M 149.8751,221.43498 C -305.96454,-63.080223 -297.86401,-43.836177 109.30193,266.19712 M 136.0632,231.44041 C -293.6593,-91.164198 -287.23923,-71.297107 91.806135,272.54641 M 121.42868,240.23779 C -279.0698,-118.01436 -274.38218,-97.66632 73.780147,277.4174 M 106.10409,247.74557 C -262.34742,-143.41521 -259.42917,-122.73382 55.38088,280.75396 M 90.229053,253.90154 C -243.65567,-167.18428 -242.5279,-146.32076 36.772342,282.51915 M 73.943374,258.66378 C -223.15826,-189.17392 -223.82629,-168.28116 18.118631,282.6963 M 57.380003,262.00914 C -201.00729,-209.26868 -203.46131,-188.49947 -0.42287593,281.28738 M 40.659229,263.92954 C -177.33309,-227.37885 -181.54939,-206.8844 -18.707449,278.30933 M 23.884256,264.4261 c -176.120926,-507.85665 -182.063496,-487.7857 -60.49165,9.3622 M 7.1386212,263.50203 C -125.78541,-257.35354 -133.40786,-237.85218 -54.014542,267.75252 m 44.5004472,-6.59778 C -98.012449,-269.06745 -107.25995,-250.27966 -70.840604,260.22436 m 44.970196,-2.81359 c -43.345562,-535.79862 -54.142127,-517.8587 -60.995983,-6.10457 m 45.11998,1.0264 c 1.984719,-537.52428 -10.268812,-520.55341 -60.179129,-11.1965 m 44.81768,4.8161 C -9.7841065,-289.458 -23.401562,-273.5719 -116.009,229.77086 m 44.108451,8.52485 C 20.548077,-291.1557 5.6625962,-276.46526 -129.08781,217.26152 m 43.037158,12.12979 C 51.032525,-290.25733 34.979673,-276.86835 -141.11354,203.66117 m 41.646312,15.61529 c 180.904801,-506.02775 163.791619,-494.0401 -52.553442,-30.2444 m 39.97405,18.97159 c 223.55639,-488.6553 205.497536,-478.16145 -49.68443,-34.55218 m 38.05264,22.19264 c 264.66249,-467.64887 245.78092,-458.73208 -46.48141,-38.62881 m 35.90751,25.27416 c 303.84798,-443.18123 284.27486,-435.9136 -42.9699,-42.4497 m 33.55712,28.2108 c 340.75693,-415.47737 320.63101,-409.91802 -39.17542,-45.99041 m 31.01372,30.99383 c 375.06939,-384.80507 354.53572,-380.99855 -35.1234,-49.22648 m 28.28494,33.60922 C 247.84843,-214.02349 227.0567,-211.99885 -189.50444,85.303125 m 25.37603,36.036185 C 270.74437,-194.40912 249.84686,-194.17955 -190.47648,66.651959 M -168.1841,104.899 c 459.98349,-277.96629 439.13329,-279.52943 -21.67519,-56.86347 m 19.042,40.207527 C 310.91204,-150.14036 290.26123,-153.47925 -187.66294,29.60558 m 15.63762,41.878091 C 328.00185,-125.74473 307.70051,-130.8293 -183.90978,11.498749 m 12.09845,43.215625 C 342.99844,-99.964907 323.19396,-106.75372 -178.62796,-6.1668718 m 8.45129,44.1754988 c 526.00494,-110.859626 506.84225,-119.30183 -1.66715,-61.301762 m 4.72211,44.753625 c 533.49936,-65.952015 515.11977,-75.985465 3.52623,-61.222963 m 0.88958,45.1038977 c 537.14717,-20.6931287 519.67681,-32.2295817 8.66247,-60.6461377 m -2.92969,45.02207 c 536.95311,24.665474 520.5103,11.7183552 13.70401,-59.595576 m -6.68227,44.510631 c 532.91739,69.928237 517.61539,55.664663 18.62601,-58.096496 m -10.34152,43.614874 c 525.03528,114.84511 510.98253,99.363168 23.40357,-56.174214 m -13.88835,42.378736 c 513.31786,159.115548 500.61736,142.518877 28.01183,-53.854142 m -17.31022,40.842766 C 376.35965,135.74181 365.10775,118.14115 -89.024077,-117.81781 m -20.599513,39.042321 C 368.97834,165.54817 359.26316,147.06225 -73.002284,-126.89806 m -23.751379,37.006338 C 359.08601,194.62342 350.98549,175.37938 -56.180483,-134.65387 m -26.761303,34.756709 C 346.78078,222.7074 340.3607,202.84031 -38.684711,-141.00317 m -29.622559,32.30865 c 400.49854,358.25207 395.81094,337.90403 47.648548,-37.17962 m -32.323955,29.67183 C 315.4689,274.9584 312.55064,254.27702 -2.2594621,-149.21071 m -34.8481929,26.85242 c 333.884825,421.08577 332.757035,400.22225 53.45673,-28.61762 m -37.171035,23.85539 c 297.10172,447.83764 297.76974,426.94488 55.824742,-24.03254 m -39.2613711,20.68717 C 254.1288,340.81188 256.58281,320.04267 53.544282,-149.74414 M 12.462167,-132.3863 C 230.4546,358.92206 234.6709,338.42759 71.828857,-146.7661 m -42.591718,13.88326 c 176.121051,507.8566 182.063621,487.78564 60.491664,-9.36222 m -43.74603,10.28627 c 132.924157,520.85555 140.546597,501.35418 61.153177,-4.2505 m -44.500465,6.59781 c 88.498495,530.22214 97.745995,511.43435 61.326505,0.93035" />
    </g>
    <rect
       y="-177.09225"
       x="-227.07417"
       height="285.75"
       width="508"
       id="rect3114"
       style="opacity:0.996;fill:url(#linearGradient3134);fill-opacity:1;stroke:none;stroke-width:0.529167;stroke-linecap:round;stroke-linejoin:round;stroke-miterlimit:4;stroke-dasharray:none;stroke-dashoffset:0" />
  </g>
</svg>
